<mxfile host="app.diagrams.net" modified="2020-12-15T11:59:49.891Z" agent="5.0 (Windows)" etag="iIUk9CyAHcH8wXcCQZZo" version="14.0.1" type="github">
  <diagram id="C5RBs43oDa-KdzZeNtuy" name="Page-1">
    <mxGraphModel dx="1216" dy="587" grid="1" gridSize="10" guides="1" tooltips="1" connect="1" arrows="1" fold="1" page="1" pageScale="1" pageWidth="827" pageHeight="1169" math="0" shadow="0">
      <root>
        <mxCell id="WIyWlLk6GJQsqaUBKTNV-0" />
        <mxCell id="WIyWlLk6GJQsqaUBKTNV-1" parent="WIyWlLk6GJQsqaUBKTNV-0" />
        <mxCell id="5bKonn04c5YfIkbcitnX-6" style="edgeStyle=orthogonalEdgeStyle;rounded=0;orthogonalLoop=1;jettySize=auto;html=1;exitX=0.25;exitY=1;exitDx=0;exitDy=0;" edge="1" parent="WIyWlLk6GJQsqaUBKTNV-1" source="5bKonn04c5YfIkbcitnX-0" target="5bKonn04c5YfIkbcitnX-5">
          <mxGeometry relative="1" as="geometry" />
        </mxCell>
        <mxCell id="5bKonn04c5YfIkbcitnX-0" value="Целевой сегмент Клиентов" style="rounded=1;whiteSpace=wrap;html=1;" vertex="1" parent="WIyWlLk6GJQsqaUBKTNV-1">
          <mxGeometry x="510" y="70" width="110" height="60" as="geometry" />
        </mxCell>
        <mxCell id="5bKonn04c5YfIkbcitnX-3" style="edgeStyle=orthogonalEdgeStyle;rounded=0;orthogonalLoop=1;jettySize=auto;html=1;entryX=0;entryY=0.5;entryDx=0;entryDy=0;" edge="1" parent="WIyWlLk6GJQsqaUBKTNV-1" source="5bKonn04c5YfIkbcitnX-1" target="5bKonn04c5YfIkbcitnX-2">
          <mxGeometry relative="1" as="geometry" />
        </mxCell>
        <mxCell id="5bKonn04c5YfIkbcitnX-1" value="Заказчик" style="rounded=1;whiteSpace=wrap;html=1;" vertex="1" parent="WIyWlLk6GJQsqaUBKTNV-1">
          <mxGeometry x="130" y="70" width="120" height="60" as="geometry" />
        </mxCell>
        <mxCell id="5bKonn04c5YfIkbcitnX-4" style="edgeStyle=orthogonalEdgeStyle;rounded=0;orthogonalLoop=1;jettySize=auto;html=1;entryX=0;entryY=0.5;entryDx=0;entryDy=0;" edge="1" parent="WIyWlLk6GJQsqaUBKTNV-1" source="5bKonn04c5YfIkbcitnX-2" target="5bKonn04c5YfIkbcitnX-0">
          <mxGeometry relative="1" as="geometry" />
        </mxCell>
        <mxCell id="5bKonn04c5YfIkbcitnX-2" value="Определяет" style="rhombus;whiteSpace=wrap;html=1;" vertex="1" parent="WIyWlLk6GJQsqaUBKTNV-1">
          <mxGeometry x="284" y="65" width="140" height="70" as="geometry" />
        </mxCell>
        <mxCell id="5bKonn04c5YfIkbcitnX-13" value="" style="edgeStyle=orthogonalEdgeStyle;rounded=0;orthogonalLoop=1;jettySize=auto;html=1;" edge="1" parent="WIyWlLk6GJQsqaUBKTNV-1" source="5bKonn04c5YfIkbcitnX-5" target="5bKonn04c5YfIkbcitnX-9">
          <mxGeometry relative="1" as="geometry" />
        </mxCell>
        <mxCell id="5bKonn04c5YfIkbcitnX-16" style="edgeStyle=orthogonalEdgeStyle;rounded=0;orthogonalLoop=1;jettySize=auto;html=1;exitX=0;exitY=0.5;exitDx=0;exitDy=0;entryX=0.5;entryY=0;entryDx=0;entryDy=0;" edge="1" parent="WIyWlLk6GJQsqaUBKTNV-1" source="5bKonn04c5YfIkbcitnX-5" target="5bKonn04c5YfIkbcitnX-7">
          <mxGeometry relative="1" as="geometry" />
        </mxCell>
        <mxCell id="5bKonn04c5YfIkbcitnX-5" value="Клиенты" style="ellipse;whiteSpace=wrap;html=1;" vertex="1" parent="WIyWlLk6GJQsqaUBKTNV-1">
          <mxGeometry x="483" y="160" width="110" height="60" as="geometry" />
        </mxCell>
        <mxCell id="5bKonn04c5YfIkbcitnX-12" value="" style="edgeStyle=orthogonalEdgeStyle;rounded=0;orthogonalLoop=1;jettySize=auto;html=1;" edge="1" parent="WIyWlLk6GJQsqaUBKTNV-1" source="5bKonn04c5YfIkbcitnX-7" target="5bKonn04c5YfIkbcitnX-11">
          <mxGeometry relative="1" as="geometry" />
        </mxCell>
        <mxCell id="5bKonn04c5YfIkbcitnX-18" value="" style="edgeStyle=orthogonalEdgeStyle;rounded=0;orthogonalLoop=1;jettySize=auto;html=1;" edge="1" parent="WIyWlLk6GJQsqaUBKTNV-1" source="5bKonn04c5YfIkbcitnX-7" target="5bKonn04c5YfIkbcitnX-17">
          <mxGeometry relative="1" as="geometry" />
        </mxCell>
        <mxCell id="5bKonn04c5YfIkbcitnX-7" value="Атомобиль" style="ellipse;whiteSpace=wrap;html=1;" vertex="1" parent="WIyWlLk6GJQsqaUBKTNV-1">
          <mxGeometry x="294" y="210" width="120" height="60" as="geometry" />
        </mxCell>
        <mxCell id="5bKonn04c5YfIkbcitnX-9" value="Контактные данные Клиентов" style="ellipse;whiteSpace=wrap;html=1;" vertex="1" parent="WIyWlLk6GJQsqaUBKTNV-1">
          <mxGeometry x="630" y="190" width="120" height="60" as="geometry" />
        </mxCell>
        <mxCell id="5bKonn04c5YfIkbcitnX-11" value="Дата выпуска" style="ellipse;whiteSpace=wrap;html=1;" vertex="1" parent="WIyWlLk6GJQsqaUBKTNV-1">
          <mxGeometry x="460" y="230" width="120" height="50" as="geometry" />
        </mxCell>
        <mxCell id="5bKonn04c5YfIkbcitnX-17" value="Марка автомобиля Клиента" style="ellipse;whiteSpace=wrap;html=1;" vertex="1" parent="WIyWlLk6GJQsqaUBKTNV-1">
          <mxGeometry x="120" y="230" width="120" height="50" as="geometry" />
        </mxCell>
      </root>
    </mxGraphModel>
  </diagram>
</mxfile>
